<mxfile host="app.diagrams.net" modified="2023-05-31T09:02:41.567Z" agent="Mozilla/5.0 (X11; Linux x86_64; rv:113.0) Gecko/20100101 Firefox/113.0" etag="ufHJl29tYMwfl2l1mj9T" version="21.3.6" type="device">
  <diagram name="Page-1" id="p8OQtnjDbmW6VjvcBKMb">
    <mxGraphModel dx="1434" dy="723" grid="1" gridSize="10" guides="1" tooltips="1" connect="1" arrows="1" fold="1" page="1" pageScale="1" pageWidth="850" pageHeight="1100" math="0" shadow="0">
      <root>
        <mxCell id="0" />
        <mxCell id="1" parent="0" />
        <mxCell id="Xl24A92PPWxfgRX4aBuu-5" value="alt" style="strokeColor=inherit;fillColor=inherit;gradientColor=inherit;html=1;shape=mxgraph.sysml.package;labelX=35;fontStyle=1;align=left;verticalAlign=top;spacingLeft=5;spacingTop=-3;" parent="1" vertex="1">
          <mxGeometry x="40" y="190" width="1160" height="290" as="geometry" />
        </mxCell>
        <mxCell id="jsgpZaHXFG1tdK8lM522-1" value="" style="shape=umlLifeline;perimeter=lifelinePerimeter;whiteSpace=wrap;html=1;container=1;dropTarget=0;collapsible=0;recursiveResize=0;outlineConnect=0;portConstraint=eastwest;newEdgeStyle={&quot;edgeStyle&quot;:&quot;elbowEdgeStyle&quot;,&quot;elbow&quot;:&quot;vertical&quot;,&quot;curved&quot;:0,&quot;rounded&quot;:0};participant=umlActor;" parent="1" vertex="1">
          <mxGeometry x="50" y="30" width="20" height="520" as="geometry" />
        </mxCell>
        <mxCell id="jsgpZaHXFG1tdK8lM522-2" value="&lt;div&gt;:Add Video&lt;/div&gt;&lt;div&gt;Interface&lt;/div&gt;" style="shape=umlLifeline;perimeter=lifelinePerimeter;whiteSpace=wrap;html=1;container=1;dropTarget=0;collapsible=0;recursiveResize=0;outlineConnect=0;portConstraint=eastwest;newEdgeStyle={&quot;edgeStyle&quot;:&quot;elbowEdgeStyle&quot;,&quot;elbow&quot;:&quot;vertical&quot;,&quot;curved&quot;:0,&quot;rounded&quot;:0};" parent="1" vertex="1">
          <mxGeometry x="230" y="30" width="100" height="520" as="geometry" />
        </mxCell>
        <mxCell id="jsgpZaHXFG1tdK8lM522-5" value="" style="html=1;points=[];perimeter=orthogonalPerimeter;outlineConnect=0;targetShapes=umlLifeline;portConstraint=eastwest;newEdgeStyle={&quot;edgeStyle&quot;:&quot;elbowEdgeStyle&quot;,&quot;elbow&quot;:&quot;vertical&quot;,&quot;curved&quot;:0,&quot;rounded&quot;:0};" parent="jsgpZaHXFG1tdK8lM522-2" vertex="1">
          <mxGeometry x="45" y="60" width="10" height="430" as="geometry" />
        </mxCell>
        <mxCell id="jsgpZaHXFG1tdK8lM522-3" value="&lt;div&gt;:Add Video&lt;/div&gt;&lt;div&gt;Control&lt;br&gt;&lt;/div&gt;" style="shape=umlLifeline;perimeter=lifelinePerimeter;whiteSpace=wrap;html=1;container=1;dropTarget=0;collapsible=0;recursiveResize=0;outlineConnect=0;portConstraint=eastwest;newEdgeStyle={&quot;edgeStyle&quot;:&quot;elbowEdgeStyle&quot;,&quot;elbow&quot;:&quot;vertical&quot;,&quot;curved&quot;:0,&quot;rounded&quot;:0};" parent="1" vertex="1">
          <mxGeometry x="470" y="30" width="100" height="520" as="geometry" />
        </mxCell>
        <mxCell id="jsgpZaHXFG1tdK8lM522-6" value="" style="html=1;points=[];perimeter=orthogonalPerimeter;outlineConnect=0;targetShapes=umlLifeline;portConstraint=eastwest;newEdgeStyle={&quot;edgeStyle&quot;:&quot;elbowEdgeStyle&quot;,&quot;elbow&quot;:&quot;vertical&quot;,&quot;curved&quot;:0,&quot;rounded&quot;:0};" parent="jsgpZaHXFG1tdK8lM522-3" vertex="1">
          <mxGeometry x="45" y="310" width="10" height="130" as="geometry" />
        </mxCell>
        <mxCell id="jsgpZaHXFG1tdK8lM522-4" value="&lt;div&gt;:Add Video&lt;/div&gt;&lt;div&gt;User Data&lt;/div&gt;" style="shape=umlLifeline;perimeter=lifelinePerimeter;whiteSpace=wrap;html=1;container=1;dropTarget=0;collapsible=0;recursiveResize=0;outlineConnect=0;portConstraint=eastwest;newEdgeStyle={&quot;edgeStyle&quot;:&quot;elbowEdgeStyle&quot;,&quot;elbow&quot;:&quot;vertical&quot;,&quot;curved&quot;:0,&quot;rounded&quot;:0};" parent="1" vertex="1">
          <mxGeometry x="1070" y="30" width="100" height="520" as="geometry" />
        </mxCell>
        <mxCell id="jsgpZaHXFG1tdK8lM522-7" value="" style="html=1;points=[];perimeter=orthogonalPerimeter;outlineConnect=0;targetShapes=umlLifeline;portConstraint=eastwest;newEdgeStyle={&quot;edgeStyle&quot;:&quot;elbowEdgeStyle&quot;,&quot;elbow&quot;:&quot;vertical&quot;,&quot;curved&quot;:0,&quot;rounded&quot;:0};" parent="jsgpZaHXFG1tdK8lM522-4" vertex="1">
          <mxGeometry x="45" y="380" width="10" height="60" as="geometry" />
        </mxCell>
        <mxCell id="jsgpZaHXFG1tdK8lM522-8" value="&lt;div&gt;click add video button&lt;/div&gt;" style="html=1;verticalAlign=bottom;endArrow=open;endSize=12;elbow=vertical;edgeStyle=elbowEdgeStyle;curved=0;rounded=0;" parent="1" source="jsgpZaHXFG1tdK8lM522-1" target="jsgpZaHXFG1tdK8lM522-5" edge="1">
          <mxGeometry width="80" relative="1" as="geometry">
            <mxPoint x="130" y="120" as="sourcePoint" />
            <mxPoint x="210" y="120" as="targetPoint" />
            <Array as="points">
              <mxPoint x="170" y="110" />
            </Array>
          </mxGeometry>
        </mxCell>
        <mxCell id="jsgpZaHXFG1tdK8lM522-9" value="show respective form" style="html=1;verticalAlign=bottom;endArrow=open;endSize=12;elbow=vertical;edgeStyle=elbowEdgeStyle;curved=0;rounded=0;" parent="1" source="jsgpZaHXFG1tdK8lM522-5" target="jsgpZaHXFG1tdK8lM522-1" edge="1">
          <mxGeometry width="80" relative="1" as="geometry">
            <mxPoint x="340" y="140" as="sourcePoint" />
            <mxPoint x="420" y="140" as="targetPoint" />
            <Array as="points">
              <mxPoint x="173" y="150" />
            </Array>
          </mxGeometry>
        </mxCell>
        <mxCell id="jsgpZaHXFG1tdK8lM522-10" value="&lt;div&gt;input video url&lt;/div&gt;&lt;div&gt;and submit form&lt;br&gt;&lt;/div&gt;" style="html=1;verticalAlign=bottom;endArrow=open;endSize=12;elbow=vertical;edgeStyle=elbowEdgeStyle;curved=0;rounded=0;" parent="1" source="jsgpZaHXFG1tdK8lM522-1" target="jsgpZaHXFG1tdK8lM522-5" edge="1">
          <mxGeometry width="80" relative="1" as="geometry">
            <mxPoint x="130" y="200" as="sourcePoint" />
            <mxPoint x="210" y="200" as="targetPoint" />
            <Array as="points">
              <mxPoint x="170" y="330" />
              <mxPoint x="173" y="210" />
            </Array>
          </mxGeometry>
        </mxCell>
        <mxCell id="jsgpZaHXFG1tdK8lM522-11" value="dispatch" style="html=1;verticalAlign=bottom;endArrow=block;edgeStyle=elbowEdgeStyle;elbow=vertical;curved=0;rounded=0;" parent="1" source="jsgpZaHXFG1tdK8lM522-5" target="jsgpZaHXFG1tdK8lM522-6" edge="1">
          <mxGeometry width="80" relative="1" as="geometry">
            <mxPoint x="350" y="240" as="sourcePoint" />
            <mxPoint x="430" y="240" as="targetPoint" />
            <Array as="points">
              <mxPoint x="360" y="350" />
              <mxPoint x="460" y="290" />
              <mxPoint x="400" y="230" />
            </Array>
          </mxGeometry>
        </mxCell>
        <mxCell id="jsgpZaHXFG1tdK8lM522-13" value="store video" style="html=1;verticalAlign=bottom;endArrow=block;edgeStyle=elbowEdgeStyle;elbow=vertical;curved=0;rounded=0;" parent="1" source="jsgpZaHXFG1tdK8lM522-6" target="jsgpZaHXFG1tdK8lM522-7" edge="1">
          <mxGeometry width="80" relative="1" as="geometry">
            <mxPoint x="620" y="270" as="sourcePoint" />
            <mxPoint x="700" y="270" as="targetPoint" />
            <Array as="points">
              <mxPoint x="820" y="440" />
              <mxPoint x="820" y="420" />
              <mxPoint x="820" y="370" />
              <mxPoint x="1010" y="270" />
              <mxPoint x="640" y="250" />
            </Array>
          </mxGeometry>
        </mxCell>
        <mxCell id="Xl24A92PPWxfgRX4aBuu-9" value="" style="strokeColor=inherit;fillColor=inherit;gradientColor=inherit;endArrow=none;html=1;edgeStyle=none;dashed=1;rounded=0;entryX=0;entryY=0.25;entryDx=0;entryDy=0;entryPerimeter=0;exitX=1;exitY=0.25;exitDx=0;exitDy=0;exitPerimeter=0;" parent="1" source="Xl24A92PPWxfgRX4aBuu-5" target="Xl24A92PPWxfgRX4aBuu-5" edge="1">
          <mxGeometry relative="1" as="geometry">
            <mxPoint x="100" y="620" as="targetPoint" />
            <mxPoint x="300" y="620" as="sourcePoint" />
          </mxGeometry>
        </mxCell>
        <mxCell id="Xl24A92PPWxfgRX4aBuu-18" value="click cancel button" style="html=1;verticalAlign=bottom;endArrow=open;endSize=12;elbow=vertical;edgeStyle=elbowEdgeStyle;curved=0;rounded=0;" parent="1" source="jsgpZaHXFG1tdK8lM522-1" target="jsgpZaHXFG1tdK8lM522-5" edge="1">
          <mxGeometry width="80" relative="1" as="geometry">
            <mxPoint x="60" y="240" as="sourcePoint" />
            <mxPoint x="275" y="240" as="targetPoint" />
            <Array as="points">
              <mxPoint x="190" y="240" />
              <mxPoint x="173" y="130" />
            </Array>
          </mxGeometry>
        </mxCell>
        <mxCell id="Xl24A92PPWxfgRX4aBuu-20" value="create video object" style="html=1;verticalAlign=bottom;endArrow=block;edgeStyle=elbowEdgeStyle;elbow=vertical;curved=0;rounded=0;" parent="1" source="jsgpZaHXFG1tdK8lM522-6" edge="1">
          <mxGeometry width="80" relative="1" as="geometry">
            <mxPoint x="530" y="380" as="sourcePoint" />
            <mxPoint x="660" y="380" as="targetPoint" />
          </mxGeometry>
        </mxCell>
        <mxCell id="Xl24A92PPWxfgRX4aBuu-21" value="&lt;div&gt;:Add Video&lt;/div&gt;&lt;div&gt;Video Object&lt;br&gt;&lt;/div&gt;" style="shape=umlLifeline;perimeter=lifelinePerimeter;whiteSpace=wrap;html=1;container=1;dropTarget=0;collapsible=0;recursiveResize=0;outlineConnect=0;portConstraint=eastwest;newEdgeStyle={&quot;edgeStyle&quot;:&quot;elbowEdgeStyle&quot;,&quot;elbow&quot;:&quot;vertical&quot;,&quot;curved&quot;:0,&quot;rounded&quot;:0};" parent="1" vertex="1">
          <mxGeometry x="660" y="360" width="100" height="190" as="geometry" />
        </mxCell>
        <mxCell id="Xl24A92PPWxfgRX4aBuu-22" value="send confirmation" style="html=1;verticalAlign=bottom;endArrow=block;edgeStyle=elbowEdgeStyle;elbow=vertical;curved=0;rounded=0;" parent="1" source="jsgpZaHXFG1tdK8lM522-6" target="jsgpZaHXFG1tdK8lM522-5" edge="1">
          <mxGeometry width="80" relative="1" as="geometry">
            <mxPoint x="450" y="460" as="sourcePoint" />
            <mxPoint x="370" y="460" as="targetPoint" />
            <Array as="points">
              <mxPoint x="400" y="460" />
            </Array>
          </mxGeometry>
        </mxCell>
        <mxCell id="Xl24A92PPWxfgRX4aBuu-24" value="show confirmation" style="html=1;verticalAlign=bottom;endArrow=open;endSize=12;elbow=vertical;edgeStyle=elbowEdgeStyle;curved=0;rounded=0;" parent="1" source="jsgpZaHXFG1tdK8lM522-5" target="jsgpZaHXFG1tdK8lM522-1" edge="1">
          <mxGeometry width="80" relative="1" as="geometry">
            <mxPoint x="275" y="490" as="sourcePoint" />
            <mxPoint x="60" y="490" as="targetPoint" />
            <Array as="points">
              <mxPoint x="170" y="510" />
            </Array>
          </mxGeometry>
        </mxCell>
        <mxCell id="AJTfmsAcwVbokUBc9UK3-1" value="[cancel]" style="text;html=1;align=center;verticalAlign=middle;resizable=0;points=[];autosize=1;strokeColor=none;fillColor=none;" parent="1" vertex="1">
          <mxGeometry x="80" y="190" width="60" height="30" as="geometry" />
        </mxCell>
        <mxCell id="AJTfmsAcwVbokUBc9UK3-2" value="[else]" style="text;html=1;align=center;verticalAlign=middle;resizable=0;points=[];autosize=1;strokeColor=none;fillColor=none;" parent="1" vertex="1">
          <mxGeometry x="85" y="260" width="50" height="30" as="geometry" />
        </mxCell>
        <mxCell id="50XyrE9TomQdz-Cjx_kK-1" value="User" style="text;html=1;align=center;verticalAlign=middle;resizable=0;points=[];autosize=1;strokeColor=none;fillColor=none;" vertex="1" parent="1">
          <mxGeometry x="35" width="50" height="30" as="geometry" />
        </mxCell>
      </root>
    </mxGraphModel>
  </diagram>
</mxfile>
